<?xml version="1.0" encoding="UTF-8" standalone="no"?>
<!-- Created with Inkscape (http://www.inkscape.org/) -->

<svg
   width="14.94563mm"
   height="14.994751mm"
   viewBox="0 0 14.94563 14.994751"
   version="1.1"
   id="svg1"
   inkscape:version="1.3.2 (091e20ef0f, 2023-11-25, custom)"
   sodipodi:docname="spade.svg"
   xmlns:inkscape="http://www.inkscape.org/namespaces/inkscape"
   xmlns:sodipodi="http://sodipodi.sourceforge.net/DTD/sodipodi-0.dtd"
   xmlns="http://www.w3.org/2000/svg"
   xmlns:svg="http://www.w3.org/2000/svg">
  <sodipodi:namedview
     id="namedview1"
     pagecolor="#ffffff"
     bordercolor="#666666"
     borderopacity="1.0"
     inkscape:showpageshadow="2"
     inkscape:pageopacity="0.0"
     inkscape:pagecheckerboard="0"
     inkscape:deskcolor="#d1d1d1"
     inkscape:document-units="mm"
     inkscape:zoom="6.1433222"
     inkscape:cx="14.650054"
     inkscape:cy="30.846502"
     inkscape:window-width="1248"
     inkscape:window-height="680"
     inkscape:window-x="426"
     inkscape:window-y="123"
     inkscape:window-maximized="0"
     inkscape:current-layer="layer1" />
  <defs
     id="defs1" />
  <g
     inkscape:label="Capa 1"
     inkscape:groupmode="layer"
     id="layer1"
     transform="translate(-83.608333,-93.927079)">
    <path
       sodipodi:nodetypes="cccccccccccccccc"
       inkscape:connector-curvature="0"
       id="path2985-3-34"
       d="m 87.66268,108.92184 c 0,-0.44139 -0.02445,-0.76017 -0.02445,-1.20155 0.912471,0 1.901148,0 2.813613,0 0,-1.0492 0,-1.12341 0,-2.1726 -1.781122,0.0574 -3.708765,0.18966 -5.376784,-0.5453 -1.291128,-0.70861 -1.647388,-2.35814 -1.387074,-3.71424 0.22281,-1.529981 1.073367,-2.888691 2.182966,-3.935121 1.443916,-1.54445 3.285387,-2.58706 5.207913,-3.42595 1.96243,0.85308 3.844504,1.9298 5.306734,3.51498 1.31706,1.2377 2.1946,2.987011 2.16764,4.818531 0.0286,1.32198 -0.79033,2.71897 -2.14105,3.00744 -1.51106,0.41846 -3.040437,0.34422 -4.591642,0.27966 0,1.04919 0,1.1234 0,2.1726 0.912463,0 1.748727,0 2.661202,0 0,0.44138 0.0244,0.76016 0.0244,1.20155 -2.089377,-0.0147 -4.586784,-0.0147 -6.843516,0 z"
       style="fill:#2D2D2D;stroke:none;stroke-width:0.264583;fill-opacity:1" />
  </g>
</svg>
